<svg version="1.1" xmlns="http://www.w3.org/2000/svg" style="display: block;" viewBox="0 0 2048 2048" width="1024" height="1024" preserveAspectRatio="none" xmlns:c2pa="http://c2pa.org/manifest"><metadata><c2pa:manifest>AAAMZ2p1bWIAAAAeanVtZGMycGEAEQAQgAAAqgA4m3EDYzJwYQAAAAxBanVtYgAAAEdqdW1kYzJtYQARABCAAACqADibcQN1cm46YzJwYTpjOGI4ODlhYi02NzdlLTQ2NTktYTczNC1kM2ZlMzY3ZDVmNjcAAAAB4mp1bWIAAAApanVtZGMyYXMAEQAQgAAAqgA4m3EDYzJwYS5hc3NlcnRpb25zAAAAAO1qdW1iAAAAQWp1bWRjYm9yABEAEIAAAKoAOJtxE2MycGEuYWN0aW9ucy52MgAAAAAYYzJzaNMlfqfg//iBhn8fwRK6KdkAAACkY2JvcqFnYWN0aW9uc4GjZmFjdGlvbmxjMnBhLmNyZWF0ZWRxZGlnaXRhbFNvdXJjZVR5cGV4Rmh0dHA6Ly9jdi5pcHRjLm9yZy9uZXdzY29kZXMvZGlnaXRhbHNvdXJjZXR5cGUvdHJhaW5lZEFsZ29yaXRobWljTWVkaWFrZGVzY3JpcHRpb252Q3JlYXRlZCBieSBSZWNyYWZ0IEFJLgAAAMRqdW1iAAAAQGp1bWRjYm9yABEAEIAAAKoAOJtxE2MycGEuaGFzaC5kYXRhAAAAABhjMnNoRxAjV4zvWLBNOcVEmNENEAAAAHxjYm9ypWpleGNsdXNpb25zgaJlc3RhcnQY22ZsZW5ndGgZEIxkbmFtZW5qdW1iZiBtYW5pZmVzdGNhbGdmc2hhMjU2ZGhhc2hYIBxP/69SFIu6IsjDwEY6g4ZDmgs6nzIzNg8qcSHj0SPNY3BhZEkAAAAAAAAAAAAAAAI0anVtYgAAACdqdW1kYzJjbAARABCAAACqADibcQNjMnBhLmNsYWltLnYyAAAAAgVjYm9ypmppbnN0YW5jZUlEeCx4bXA6aWlkOjRkMzI1ZjU3LTZmMmYtNGY4My1iNzA2LTkyMjlhN2FjYThhMHRjbGFpbV9nZW5lcmF0b3JfaW5mb6NkbmFtZWpyZWNyYWZ0LmFpZ3ZlcnNpb254KDgxY2U4MmUyYzVjM2NiZmJlOGM2ZmJlMTc5ZDVmOGQ5MWM0MDljZTF3b3JnLmNvbnRlbnRhdXRoLmMycGFfcnNmMC45MC43aXNpZ25hdHVyZXhNc2VsZiNqdW1iZj0vYzJwYS91cm46YzJwYTpjOGI4ODlhYi02NzdlLTQ2NTktYTczNC1kM2ZlMzY3ZDVmNjcvYzJwYS5zaWduYXR1cmVyY3JlYXRlZF9hc3NlcnRpb25zgqJjdXJseCpzZWxmI2p1bWJmPWMycGEuYXNzZXJ0aW9ucy9jMnBhLmFjdGlvbnMudjJkaGFzaFggTu8sgnMqcFUGtRRFV6YD+7A+YLmy/gB1D9jhd8B0m0eiY3VybHgpc2VsZiNqdW1iZj1jMnBhLmFzc2VydGlvbnMvYzJwYS5oYXNoLmRhdGFkaGFzaFggKcY29Ao8KXKvXfjLxoWWokNFpdBLSQvN6PW8kPynkCNoZGM6dGl0bGV4GlJlY3JhZnQgQUkgR2VuZXJhdGVkIEltYWdlY2FsZ2ZzaGEyNTYAAAfcanVtYgAAAChqdW1kYzJjcwARABCAAACqADibcQNjMnBhLnNpZ25hdHVyZQAAAAesY2JvctKEWQOwogEmGCGCWQHnMIIB4zCCAYmgAwIBAgIJALfeWmNDUW56MAoGCCqGSM49BAMCMEAxHzAdBgNVBAMMFlJlY3JhZnQgU3RhZ2luZyBEZXYgQ0ExEDAOBgNVBAoMB1JlY3JhZnQxCzAJBgNVBAYTAlVTMB4XDTI2MDYxMjE5NDM1MFoXDTI3MDYxMjE5NDM1MFowNzELMAkGA1UEBhMCVVMxEzARBgNVBAoTClJlY3JhZnQgQUkxEzARBgNVBAMTCnJlY3JhZnQuYWkwWTATBgcqhkjOPQIBBggqhkjOPQMBBwNCAARKaTVbACsg/DeG3LeOxYdID/VA6EFG73E6Oknb+KIiCFJygRUz4ueN2z/t2qYb6CIUvS8RvgOiiClfoqsYtw81o3UwczAMBgNVHRMBAf8EAjAAMA4GA1UdDwEB/wQEAwIGwDATBgNVHSUEDDAKBggrBgEFBQcDBDAdBgNVHQ4EFgQULzHpBen96SL1y4IPHa8MkMshXf0wHwYDVR0jBBgwFoAUAgsqOBrKqpdK//m/kxZo7ZR4ebcwCgYIKoZIzj0EAwIDSAAwRQIgU8hKW0aXvvk8SQgVFNkax69Ym9ae8GsT2RZTQw+B51ACIQC0D4BkEoRD4N0r2ZRkNy0HZaW3WICy/QZGN95ilF4yzFkBvTCCAbkwggFfoAMCAQICCQCc+Wg7T6ATbzAKBggqhkjOPQQDAjBAMR8wHQYDVQQDDBZSZWNyYWZ0IFN0YWdpbmcgRGV2IENBMRAwDgYDVQQKDAdSZWNyYWZ0MQswCQYDVQQGEwJVUzAeFw0yNjA2MTIxOTQwMTZaFw0yODA2MTExOTQwMTZaMEAxHzAdBgNVBAMMFlJlY3JhZnQgU3RhZ2luZyBEZXYgQ0ExEDAOBgNVBAoMB1JlY3JhZnQxCzAJBgNVBAYTAlVTMFkwEwYHKoZIzj0CAQYIKoZIzj0DAQcDQgAEQ9IQBlcVbKaKPYrQSfOhL/00s7xUDC7RinIuLO/I1k99y9yh6oWF9kPxaP+tx1v1PeOL3yrVquJ730H0ZGiDyqNCMEAwDwYDVR0TAQH/BAUwAwEB/zAOBgNVHQ8BAf8EBAMCAYYwHQYDVR0OBBYEFAILKjgayqqXSv/5v5MWaO2UeHm3MAoGCCqGSM49BAMCA0gAMEUCIFQwNImLlYDeQhjgF+ZiqTbgcuzSqmOJw3Q2lQ/hu83FAiEA9O8cLm/xfoVLqB4jtdbuHzi3WL+p2RN+DRGkwpYswVuhY3BhZFkDpAAAAAAAAAAAAAAAAAAAAAAAAAAAAAAAAAAAAAAAAAAAAAAAAAAAAAAAAAAAAAAAAAAAAAAAAAAAAAAAAAAAAAAAAAAAAAAAAAAAAAAAAAAAAAAAAAAAAAAAAAAAAAAAAAAAAAAAAAAAAAAAAAAAAAAAAAAAAAAAAAAAAAAAAAAAAAAAAAAAAAAAAAAAAAAAAAAAAAAAAAAAAAAAAAAAAAAAAAAAAAAAAAAAAAAAAAAAAAAAAAAAAAAAAAAAAAAAAAAAAAAAAAAAAAAAAAAAAAAAAAAAAAAAAAAAAAAAAAAAAAAAAAAAAAAAAAAAAAAAAAAAAAAAAAAAAAAAAAAAAAAAAAAAAAAAAAAAAAAAAAAAAAAAAAAAAAAAAAAAAAAAAAAAAAAAAAAAAAAAAAAAAAAAAAAAAAAAAAAAAAAAAAAAAAAAAAAAAAAAAAAAAAAAAAAAAAAAAAAAAAAAAAAAAAAAAAAAAAAAAAAAAAAAAAAAAAAAAAAAAAAAAAAAAAAAAAAAAAAAAAAAAAAAAAAAAAAAAAAAAAAAAAAAAAAAAAAAAAAAAAAAAAAAAAAAAAAAAAAAAAAAAAAAAAAAAAAAAAAAAAAAAAAAAAAAAAAAAAAAAAAAAAAAAAAAAAAAAAAAAAAAAAAAAAAAAAAAAAAAAAAAAAAAAAAAAAAAAAAAAAAAAAAAAAAAAAAAAAAAAAAAAAAAAAAAAAAAAAAAAAAAAAAAAAAAAAAAAAAAAAAAAAAAAAAAAAAAAAAAAAAAAAAAAAAAAAAAAAAAAAAAAAAAAAAAAAAAAAAAAAAAAAAAAAAAAAAAAAAAAAAAAAAAAAAAAAAAAAAAAAAAAAAAAAAAAAAAAAAAAAAAAAAAAAAAAAAAAAAAAAAAAAAAAAAAAAAAAAAAAAAAAAAAAAAAAAAAAAAAAAAAAAAAAAAAAAAAAAAAAAAAAAAAAAAAAAAAAAAAAAAAAAAAAAAAAAAAAAAAAAAAAAAAAAAAAAAAAAAAAAAAAAAAAAAAAAAAAAAAAAAAAAAAAAAAAAAAAAAAAAAAAAAAAAAAAAAAAAAAAAAAAAAAAAAAAAAAAAAAAAAAAAAAAAAAAAAAAAAAAAAAAAAAAAAAAAAAAAAAAAAAAAAAAAAAAAAAAAAAAAAAAAAAAAAAAAAAAAAAAAAAAAAAAAAAAAAAAAAAAAAAAAAAAAAAAAAAAAAAAAAAAAAAAAAAAAAAAAAAAAAAAAAAAAAAAAAAAAAAAAAA9lhAt15O2qL4qwN/I0eLHDVtiImGN76D6jqfRSec1H4tE6D8jJjcII/62XtVYXXntMnAJ+cJv15gZPGuGuYjXpnR1w==</c2pa:manifest></metadata>
<path transform="translate(0,0)" fill="rgb(36,19,56)" d="M 0 0 L 2048 0 L 2048 2048 L 0 2048 L 0 0 z"/>
<path transform="translate(0,0)" fill="rgb(255,246,232)" d="M 891.85 878.233 C 941.613 863.615 999.008 863.326 1050.29 866.6 C 1077.76 868.354 1107.63 869.923 1133.08 857.674 C 1149.81 849.544 1162.89 835.469 1169.79 818.201 C 1179.09 795.341 1185.57 731.676 1188.03 705.244 C 1197.36 603.649 1209.52 501.716 1265.62 413.76 C 1311.05 342.536 1390.4 285.988 1477.21 319.483 C 1503.41 329.591 1515.4 341.196 1533.12 361.764 C 1502.04 371.079 1520.06 395.523 1522.43 419.359 C 1525.19 447.123 1489.76 462.669 1501.57 485.396 C 1468.63 500.847 1450.87 500.063 1417.54 505.239 C 1373.76 512.04 1343.91 561.834 1330.55 600.825 C 1298.59 694.033 1307.33 794.674 1328.95 889.218 C 1335.55 918.039 1344.22 945.281 1350.69 973.276 C 1371.63 1063.99 1369.27 1150.87 1317.39 1231.74 C 1278.33 1292.64 1222.23 1335.3 1157.27 1366.19 C 1116.76 1385.46 1073.77 1397.07 1029.8 1405.33 C 1020.72 1407.03 1003.67 1410 995.044 1409.91 C 993.449 1392.52 954.717 1394.88 944.735 1407.89 C 944.426 1409.52 944.1 1411.14 943.757 1412.76 L 941.25 1413.43 C 912.601 1415.17 850.201 1413 821.455 1408.65 C 821.628 1407.55 821.67 1405.7 821.735 1404.53 C 813.558 1386.36 779.475 1396.31 765.55 1400.73 C 734.494 1395.56 685.684 1380.09 656.274 1368.46 C 578.391 1337.65 498.245 1290.02 437.134 1232.49 C 406.16 1203.33 377.726 1169.89 345.205 1140.42 C 323.725 1119.24 290.259 1101.37 275.95 1074.57 C 265.793 1055.55 300.196 1061.08 307.53 1061.83 C 369.515 1068.22 433.634 1064.29 493.121 1044.86 C 459.985 1031.77 424.704 1024.37 392.303 1009.49 C 382.567 1005.02 362.416 991.805 371.679 979.812 C 385.063 962.483 428.207 963.549 447.94 963.135 C 487.678 962.301 526.614 965.036 565.519 955.354 C 595.277 948.185 618.235 935.877 645.946 924.194 C 683.912 908.186 724.043 893.89 764.556 886.087 C 790.183 881.105 816.218 878.519 842.324 878.361 C 855.709 878.29 878.772 881.035 890.458 878.541 L 891.85 878.233 z"/>
<path transform="translate(0,0)" fill="rgb(0,0,0)" d="M 1447.35 361.646 C 1453.62 359.752 1460.25 363.2 1462.31 369.418 C 1464.36 375.636 1461.09 382.358 1454.92 384.572 C 1450.79 386.055 1446.18 385.181 1442.88 382.289 C 1439.58 379.397 1438.11 374.942 1439.04 370.652 C 1439.96 366.363 1443.15 362.915 1447.35 361.646 z"/>
<path transform="translate(0,0)" fill="rgb(232,128,31)" d="M 765.55 1400.73 C 779.475 1396.31 813.558 1386.36 821.735 1404.53 C 821.67 1405.7 821.628 1407.55 821.455 1408.65 C 820.002 1411.24 816.774 1444.73 816.396 1450.63 C 812.507 1511.41 796.486 1581.64 816.014 1640.58 C 822.958 1658.02 838.833 1665.83 855.232 1670.97 C 909.188 1687.88 963.69 1698.39 1016.91 1717.87 C 996.582 1717.74 969.566 1716.13 964.243 1741.3 C 954.782 1737.5 944.983 1734.59 934.976 1732.63 C 902.883 1726.53 881.317 1733.21 854.766 1751.11 C 835.943 1724.36 814.435 1712.99 788.411 1694.96 C 764.801 1678.6 776.464 1654.99 778.249 1631.43 C 784.077 1554.5 773.823 1477.15 765.55 1400.73 z"/>
<path transform="translate(0,0)" fill="rgb(232,128,31)" d="M 941.25 1413.43 L 943.757 1412.76 C 944.1 1411.14 944.426 1409.52 944.735 1407.89 C 954.717 1394.88 993.449 1392.52 995.044 1409.91 C 992.445 1417.21 991.103 1435.45 990.236 1443.89 C 984.983 1494.97 979.504 1546.75 981.322 1598.14 C 982.55 1632.85 997.451 1650.9 1029.88 1661.28 C 1071.32 1674.55 1117.2 1684.51 1156.17 1703.77 L 1157.29 1705.52 C 1154.65 1707.1 1147.47 1706.29 1144.39 1705.91 C 1121.5 1707.68 1091.16 1710.34 1074.87 1728.61 C 1072.38 1731.41 1070.55 1736.69 1069.22 1740.26 C 1038.93 1718.1 1005.69 1712.97 971.681 1699.07 C 964.741 1697.32 945.775 1682.55 947.205 1674.99 C 962.182 1595.76 954.054 1512.02 946.115 1432.3 C 945.748 1428.62 945.178 1416.52 943.933 1414.08 L 941.25 1413.43 z"/>
<path transform="translate(0,0)" fill="rgb(232,128,31)" d="M 1533.12 361.764 C 1555.73 381.903 1563.51 393.014 1590.39 409.496 C 1612.56 423.09 1657.56 439.315 1675.42 453.343 C 1631.17 453.702 1586.02 452.956 1541.59 452.964 L 1529.13 452.312 C 1533.38 453.541 1537.93 454.957 1542.22 455.96 C 1558.13 460.679 1643.13 482.749 1650.59 488.485 L 1650.94 490.128 C 1642.69 496.037 1549.69 486.953 1531.72 487.653 C 1524.89 487.919 1509.64 484.817 1501.57 485.396 C 1489.76 462.669 1525.19 447.123 1522.43 419.359 C 1520.06 395.523 1502.04 371.079 1533.12 361.764 z"/>
<path transform="translate(0,0)" fill="rgb(0,0,0)" d="M 1542.74 405.819 C 1548.86 407.001 1562.95 410.207 1557.65 419.026 C 1552.71 417.547 1547.86 415.67 1542.97 414.173 C 1538.13 412.697 1540.88 409.142 1542.74 405.819 z"/>
</svg>