<svg version="1.1" xmlns="http://www.w3.org/2000/svg" style="display: block;" viewBox="0 0 2048 2048" width="1024" height="1024" preserveAspectRatio="none" xmlns:c2pa="http://c2pa.org/manifest"><metadata><c2pa:manifest>AAAMZ2p1bWIAAAAeanVtZGMycGEAEQAQgAAAqgA4m3EDYzJwYQAAAAxBanVtYgAAAEdqdW1kYzJtYQARABCAAACqADibcQN1cm46YzJwYTo0Y2QxOWFlMi0zNjdhLTQ2MDYtYjZkYi03ZjIzYzU1ZjQwNGQAAAAB4mp1bWIAAAApanVtZGMyYXMAEQAQgAAAqgA4m3EDYzJwYS5hc3NlcnRpb25zAAAAAO1qdW1iAAAAQWp1bWRjYm9yABEAEIAAAKoAOJtxE2MycGEuYWN0aW9ucy52MgAAAAAYYzJzaITG71q+WEZF9Uj3uYfCxE0AAACkY2JvcqFnYWN0aW9uc4GjZmFjdGlvbmxjMnBhLmNyZWF0ZWRxZGlnaXRhbFNvdXJjZVR5cGV4Rmh0dHA6Ly9jdi5pcHRjLm9yZy9uZXdzY29kZXMvZGlnaXRhbHNvdXJjZXR5cGUvdHJhaW5lZEFsZ29yaXRobWljTWVkaWFrZGVzY3JpcHRpb252Q3JlYXRlZCBieSBSZWNyYWZ0IEFJLgAAAMRqdW1iAAAAQGp1bWRjYm9yABEAEIAAAKoAOJtxE2MycGEuaGFzaC5kYXRhAAAAABhjMnNovyYgX2eIechvc9TPZa9F5gAAAHxjYm9ypWpleGNsdXNpb25zgaJlc3RhcnQY22ZsZW5ndGgZEIxkbmFtZW5qdW1iZiBtYW5pZmVzdGNhbGdmc2hhMjU2ZGhhc2hYIK+mYr8RuQF9qnQRramu4YYJkNMlurCsnP6QJEI2urLUY3BhZEkAAAAAAAAAAAAAAAI0anVtYgAAACdqdW1kYzJjbAARABCAAACqADibcQNjMnBhLmNsYWltLnYyAAAAAgVjYm9ypmppbnN0YW5jZUlEeCx4bXA6aWlkOmRjMmIwMDVhLTZhODItNGE5MS04MDlhLThjM2E0YjFkMThjY3RjbGFpbV9nZW5lcmF0b3JfaW5mb6NkbmFtZWpyZWNyYWZ0LmFpZ3ZlcnNpb254KDgxY2U4MmUyYzVjM2NiZmJlOGM2ZmJlMTc5ZDVmOGQ5MWM0MDljZTF3b3JnLmNvbnRlbnRhdXRoLmMycGFfcnNmMC45MC43aXNpZ25hdHVyZXhNc2VsZiNqdW1iZj0vYzJwYS91cm46YzJwYTo0Y2QxOWFlMi0zNjdhLTQ2MDYtYjZkYi03ZjIzYzU1ZjQwNGQvYzJwYS5zaWduYXR1cmVyY3JlYXRlZF9hc3NlcnRpb25zgqJjdXJseCpzZWxmI2p1bWJmPWMycGEuYXNzZXJ0aW9ucy9jMnBhLmFjdGlvbnMudjJkaGFzaFgg1tqtGSzY7t+yop79j/3N9z8q1eqlhENeDte+/GKU8imiY3VybHgpc2VsZiNqdW1iZj1jMnBhLmFzc2VydGlvbnMvYzJwYS5oYXNoLmRhdGFkaGFzaFggwnO3hbQee1PvSPnYAeLNEyVXCX+JwOcIji6231lq3hdoZGM6dGl0bGV4GlJlY3JhZnQgQUkgR2VuZXJhdGVkIEltYWdlY2FsZ2ZzaGEyNTYAAAfcanVtYgAAAChqdW1kYzJjcwARABCAAACqADibcQNjMnBhLnNpZ25hdHVyZQAAAAesY2JvctKEWQOwogEmGCGCWQHnMIIB4zCCAYmgAwIBAgIJALfeWmNDUW56MAoGCCqGSM49BAMCMEAxHzAdBgNVBAMMFlJlY3JhZnQgU3RhZ2luZyBEZXYgQ0ExEDAOBgNVBAoMB1JlY3JhZnQxCzAJBgNVBAYTAlVTMB4XDTI2MDYxMjE5NDM1MFoXDTI3MDYxMjE5NDM1MFowNzELMAkGA1UEBhMCVVMxEzARBgNVBAoTClJlY3JhZnQgQUkxEzARBgNVBAMTCnJlY3JhZnQuYWkwWTATBgcqhkjOPQIBBggqhkjOPQMBBwNCAARKaTVbACsg/DeG3LeOxYdID/VA6EFG73E6Oknb+KIiCFJygRUz4ueN2z/t2qYb6CIUvS8RvgOiiClfoqsYtw81o3UwczAMBgNVHRMBAf8EAjAAMA4GA1UdDwEB/wQEAwIGwDATBgNVHSUEDDAKBggrBgEFBQcDBDAdBgNVHQ4EFgQULzHpBen96SL1y4IPHa8MkMshXf0wHwYDVR0jBBgwFoAUAgsqOBrKqpdK//m/kxZo7ZR4ebcwCgYIKoZIzj0EAwIDSAAwRQIgU8hKW0aXvvk8SQgVFNkax69Ym9ae8GsT2RZTQw+B51ACIQC0D4BkEoRD4N0r2ZRkNy0HZaW3WICy/QZGN95ilF4yzFkBvTCCAbkwggFfoAMCAQICCQCc+Wg7T6ATbzAKBggqhkjOPQQDAjBAMR8wHQYDVQQDDBZSZWNyYWZ0IFN0YWdpbmcgRGV2IENBMRAwDgYDVQQKDAdSZWNyYWZ0MQswCQYDVQQGEwJVUzAeFw0yNjA2MTIxOTQwMTZaFw0yODA2MTExOTQwMTZaMEAxHzAdBgNVBAMMFlJlY3JhZnQgU3RhZ2luZyBEZXYgQ0ExEDAOBgNVBAoMB1JlY3JhZnQxCzAJBgNVBAYTAlVTMFkwEwYHKoZIzj0CAQYIKoZIzj0DAQcDQgAEQ9IQBlcVbKaKPYrQSfOhL/00s7xUDC7RinIuLO/I1k99y9yh6oWF9kPxaP+tx1v1PeOL3yrVquJ730H0ZGiDyqNCMEAwDwYDVR0TAQH/BAUwAwEB/zAOBgNVHQ8BAf8EBAMCAYYwHQYDVR0OBBYEFAILKjgayqqXSv/5v5MWaO2UeHm3MAoGCCqGSM49BAMCA0gAMEUCIFQwNImLlYDeQhjgF+ZiqTbgcuzSqmOJw3Q2lQ/hu83FAiEA9O8cLm/xfoVLqB4jtdbuHzi3WL+p2RN+DRGkwpYswVuhY3BhZFkDpAAAAAAAAAAAAAAAAAAAAAAAAAAAAAAAAAAAAAAAAAAAAAAAAAAAAAAAAAAAAAAAAAAAAAAAAAAAAAAAAAAAAAAAAAAAAAAAAAAAAAAAAAAAAAAAAAAAAAAAAAAAAAAAAAAAAAAAAAAAAAAAAAAAAAAAAAAAAAAAAAAAAAAAAAAAAAAAAAAAAAAAAAAAAAAAAAAAAAAAAAAAAAAAAAAAAAAAAAAAAAAAAAAAAAAAAAAAAAAAAAAAAAAAAAAAAAAAAAAAAAAAAAAAAAAAAAAAAAAAAAAAAAAAAAAAAAAAAAAAAAAAAAAAAAAAAAAAAAAAAAAAAAAAAAAAAAAAAAAAAAAAAAAAAAAAAAAAAAAAAAAAAAAAAAAAAAAAAAAAAAAAAAAAAAAAAAAAAAAAAAAAAAAAAAAAAAAAAAAAAAAAAAAAAAAAAAAAAAAAAAAAAAAAAAAAAAAAAAAAAAAAAAAAAAAAAAAAAAAAAAAAAAAAAAAAAAAAAAAAAAAAAAAAAAAAAAAAAAAAAAAAAAAAAAAAAAAAAAAAAAAAAAAAAAAAAAAAAAAAAAAAAAAAAAAAAAAAAAAAAAAAAAAAAAAAAAAAAAAAAAAAAAAAAAAAAAAAAAAAAAAAAAAAAAAAAAAAAAAAAAAAAAAAAAAAAAAAAAAAAAAAAAAAAAAAAAAAAAAAAAAAAAAAAAAAAAAAAAAAAAAAAAAAAAAAAAAAAAAAAAAAAAAAAAAAAAAAAAAAAAAAAAAAAAAAAAAAAAAAAAAAAAAAAAAAAAAAAAAAAAAAAAAAAAAAAAAAAAAAAAAAAAAAAAAAAAAAAAAAAAAAAAAAAAAAAAAAAAAAAAAAAAAAAAAAAAAAAAAAAAAAAAAAAAAAAAAAAAAAAAAAAAAAAAAAAAAAAAAAAAAAAAAAAAAAAAAAAAAAAAAAAAAAAAAAAAAAAAAAAAAAAAAAAAAAAAAAAAAAAAAAAAAAAAAAAAAAAAAAAAAAAAAAAAAAAAAAAAAAAAAAAAAAAAAAAAAAAAAAAAAAAAAAAAAAAAAAAAAAAAAAAAAAAAAAAAAAAAAAAAAAAAAAAAAAAAAAAAAAAAAAAAAAAAAAAAAAAAAAAAAAAAAAAAAAAAAAAAAAAAAAAAAAAAAAAAAAAAAAAAAAAAAAAAAAAAAAAAAAAAAAAAAAAAAAAAAAAAAAAAAAAAAAAAAAAAAAAAAAAAAAAAAAAAAAAAAAAAAAAAAAAAAAAAAAAAAAAAAAAAAA9lhAuYGe+IdWCr4FcGJhmZZD+Jis7qPa7H7QuQSz0WKZLWrebNR6StWCtyaQQy5X0uVV6DUqHwVoC7iZRIyC4umFVw==</c2pa:manifest></metadata>
<path transform="translate(0,0)" fill="rgb(36,19,56)" d="M 0 0 L 2048 0 L 2048 2048 L 0 2048 L 0 0 z"/>
<path transform="translate(0,0)" fill="rgb(255,246,232)" d="M 1124.16 940.884 C 1159.17 898.584 1159.57 841.935 1144.22 791.644 C 1137.31 768.982 1128.57 746.976 1121.77 724.348 C 1115.01 701.37 1110.3 677.836 1107.71 654.024 C 1098.27 570.504 1112.3 483.257 1165.62 416.069 C 1199.29 373.643 1247.56 340.658 1303.71 347.436 C 1332.07 350.86 1352.2 363.421 1373.82 381.05 C 1369.48 405.073 1377.48 410.641 1377.06 432.074 C 1376.75 447.503 1367.91 471.567 1364.8 487.805 C 1366.38 490.798 1368.55 494.628 1369.81 497.665 C 1346.65 509.22 1337.98 509.64 1314.01 517.132 C 1284.87 526.238 1261.7 549.448 1252.16 579.004 C 1232.9 638.638 1265.01 709.972 1291.07 763.281 C 1308.61 799.162 1329.05 832.179 1344.83 868.987 C 1380.77 953.557 1384.43 1048.38 1355.1 1135.46 C 1323.47 1230.78 1252.09 1310.44 1162.98 1355.98 C 1143.11 1366.33 1127.56 1372.96 1106.34 1380.74 C 1069.09 1394.06 1052.62 1396.45 1014.3 1402.92 C 1006.8 1430.16 999.653 1474.67 994.058 1503.69 C 988.025 1534.98 978.119 1579.1 974.406 1609.63 C 999.305 1609.36 1024.38 1609.47 1049.24 1609.31 C 1078.24 1609.12 1094.26 1611.4 1119.75 1624.81 C 1078.56 1647.35 1078.83 1660.56 1078.43 1704.69 C 1036.39 1679.41 985.088 1649.8 944.761 1622.19 C 953.258 1559.48 959.752 1469.33 960.854 1405.76 C 885.872 1403.56 825.383 1389.53 758.56 1353.65 C 650.206 1295.47 544.843 1183.97 508.812 1064.97 C 569.013 1081.06 637.518 1085.01 699.562 1082.63 C 713.021 1082.12 726.702 1079.7 740.097 1079 C 741.569 1078.36 741.598 1078.27 742.938 1077.39 C 741.595 1075.48 724.095 1065.89 720.071 1063.52 L 621.631 1006.43 C 595.464 991.396 560.147 973.892 538.298 953.649 C 511.925 929.212 519.584 879.038 556.252 868.785 C 564.735 866.413 569.262 866.645 578.012 866.923 L 859.175 867.067 L 948.58 867.065 C 962.895 867.066 981.03 866.564 994.98 867.137 C 1057.96 863.979 1090.5 890.027 1124.16 940.884 z"/>
<path transform="translate(0,0)" fill="rgb(255,246,232)" d="M 994.98 867.137 C 1057.96 863.979 1090.5 890.027 1124.16 940.884 C 1126.74 948.73 1132.54 955.767 1135.42 963.608 C 1152.26 1008.49 1144.41 1058.14 1111.55 1093.73 C 1082.08 1125.66 1041.44 1148.74 1004.22 1170.52 C 982.611 1183.16 962.845 1203.31 937.7 1188.71 C 921.576 1179.34 905.185 1170.22 889.062 1160.9 L 797.255 1107.77 C 780.845 1098.31 764.42 1088.76 747.738 1079.8 C 745.475 1078.59 743.507 1079.09 741.074 1079.02 L 740.097 1079 C 741.569 1078.36 741.598 1078.27 742.938 1077.39 C 741.595 1075.48 724.095 1065.89 720.071 1063.52 L 621.631 1006.43 C 595.464 991.396 560.147 973.892 538.298 953.649 C 511.925 929.212 519.584 879.038 556.252 868.785 C 564.735 866.413 569.262 866.645 578.012 866.923 L 859.175 867.067 L 948.58 867.065 C 962.895 867.066 981.03 866.564 994.98 867.137 z"/>
<path transform="translate(0,0)" fill="rgb(207,201,222)" d="M 994.98 867.137 C 1057.96 863.979 1090.5 890.027 1124.16 940.884 C 1126.74 948.73 1132.54 955.767 1135.42 963.608 C 1152.26 1008.49 1144.41 1058.14 1111.55 1093.73 C 1082.08 1125.66 1041.44 1148.74 1004.22 1170.52 C 982.611 1183.16 962.845 1203.31 937.7 1188.71 C 921.576 1179.34 905.185 1170.22 889.062 1160.9 L 797.255 1107.77 C 780.845 1098.31 764.42 1088.76 747.738 1079.8 C 745.475 1078.59 743.507 1079.09 741.074 1079.02 L 740.097 1079 C 741.569 1078.36 741.598 1078.27 742.938 1077.39 C 741.595 1075.48 724.095 1065.89 720.071 1063.52 L 621.631 1006.43 C 595.464 991.396 560.147 973.892 538.298 953.649 C 511.925 929.212 519.584 879.038 556.252 868.785 C 564.735 866.413 569.262 866.645 578.012 866.923 C 543.508 873.648 521.771 886.967 528.332 927.14 C 532.303 951.458 557.138 964.29 575.747 976.2 C 638.117 1012.94 702.958 1048.53 765.216 1085.37 C 802.991 1107.94 840.982 1130.14 879.184 1151.97 C 899.458 1163.72 920.571 1176.25 941.299 1187.18 C 947.614 1190.51 954.82 1193.27 961.73 1191.14 C 976.072 1186.72 992.555 1174.65 1005.67 1166.88 C 1047.15 1142.29 1100.65 1113.23 1125.46 1070.26 C 1141.38 1042.91 1145.68 1010.31 1137.39 979.767 C 1134.86 970.393 1131.36 960.871 1126.61 952.41 C 1095.16 896.309 1058.5 871.145 994.98 867.137 z"/>
<path transform="translate(0,0)" fill="rgb(232,128,31)" d="M 960.854 1405.76 C 962.515 1384.93 962.731 1364.07 963.754 1343.21 C 964.874 1320.35 961.3 1296.8 983.598 1282.51 C 1008.44 1266.59 1038.94 1285.08 1036.94 1314.21 C 1036.11 1326.18 1031.85 1339.23 1028.71 1350.87 C 1024.07 1368.26 1019.27 1385.61 1014.3 1402.92 C 1006.8 1430.16 999.653 1474.67 994.058 1503.69 C 988.025 1534.98 978.119 1579.1 974.406 1609.63 C 999.305 1609.36 1024.38 1609.47 1049.24 1609.31 C 1078.24 1609.12 1094.26 1611.4 1119.75 1624.81 C 1078.56 1647.35 1078.83 1660.56 1078.43 1704.69 C 1036.39 1679.41 985.088 1649.8 944.761 1622.19 C 953.258 1559.48 959.752 1469.33 960.854 1405.76 z"/>
<path transform="translate(0,0)" fill="rgb(46,27,68)" d="M 1324.32 393.408 C 1329.61 391.855 1335.16 394.81 1336.83 400.06 C 1338.5 405.309 1335.66 410.928 1330.45 412.706 C 1326.98 413.891 1323.13 413.105 1320.41 410.65 C 1317.68 408.196 1316.49 404.458 1317.3 400.88 C 1318.12 397.301 1320.8 394.443 1324.32 393.408 z"/>
<path transform="translate(0,0)" fill="rgb(232,128,31)" d="M 1106.34 1380.74 C 1127.56 1372.96 1143.11 1366.33 1162.98 1355.98 C 1156.58 1426.13 1148.56 1497.92 1142.84 1567.82 C 1166.73 1568.74 1190.61 1569.89 1214.47 1571.28 C 1245.28 1572.87 1276.74 1571.98 1304.5 1586.87 C 1261.98 1606.9 1257.84 1620.45 1255.05 1665.81 C 1225.24 1647.06 1195.69 1627.89 1166.42 1608.31 C 1151.36 1598.41 1135.88 1589.02 1121.42 1578.3 C 1118.81 1534.6 1114.9 1489.74 1111.82 1446 C 1110.79 1431.32 1108.59 1393.5 1106.34 1380.74 z"/>
<path transform="translate(0,0)" fill="rgb(232,128,31)" d="M 1373.82 381.05 C 1408.3 403.863 1440.64 423.985 1482 431.915 C 1505.07 436.338 1522.91 432.102 1538.96 453.228 C 1511.21 458.932 1482.1 462.377 1454.14 467.199 C 1446.59 468.501 1425.92 470.9 1420.37 472.695 C 1411.84 473.649 1382.03 476.935 1375.09 479.123 L 1374.61 480.688 C 1375.97 482.223 1377.86 484.532 1380.05 483.854 C 1385.91 482.045 1407.18 480.144 1410.85 477.392 C 1418.23 478.777 1501.83 502.495 1503.9 504.27 C 1497.33 515.194 1422.91 501.685 1409.04 502.229 C 1405.12 502.383 1372.22 498.916 1369.81 497.665 C 1368.55 494.628 1366.38 490.798 1364.8 487.805 C 1367.91 471.567 1376.75 447.503 1377.06 432.074 C 1377.48 410.641 1369.48 405.073 1373.82 381.05 z"/>
<path transform="translate(0,0)" fill="rgb(36,19,56)" d="M 1414.01 426.224 C 1419.94 428.444 1428.14 434.945 1433.52 438.562 C 1434.15 438.985 1432.63 441.665 1432.43 442.023 L 1431.8 443.376 C 1429.61 442.565 1413.5 432.006 1412.53 430.626 C 1412.64 430.236 1412.75 429.847 1412.86 429.457 L 1414.01 426.224 z"/>
</svg>