<svg version="1.1" xmlns="http://www.w3.org/2000/svg" style="display: block;" viewBox="0 0 2048 2048" width="1024" height="1024" preserveAspectRatio="none" xmlns:c2pa="http://c2pa.org/manifest"><metadata><c2pa:manifest>AAAMZ2p1bWIAAAAeanVtZGMycGEAEQAQgAAAqgA4m3EDYzJwYQAAAAxBanVtYgAAAEdqdW1kYzJtYQARABCAAACqADibcQN1cm46YzJwYToxNmY2ZDBiNS03ZTc1LTQ5MmItODE3My1jNjUyODcyZWVjMDMAAAAB4mp1bWIAAAApanVtZGMyYXMAEQAQgAAAqgA4m3EDYzJwYS5hc3NlcnRpb25zAAAAAO1qdW1iAAAAQWp1bWRjYm9yABEAEIAAAKoAOJtxE2MycGEuYWN0aW9ucy52MgAAAAAYYzJzaNSoHalMBpovubLOwaItN8cAAACkY2JvcqFnYWN0aW9uc4GjZmFjdGlvbmxjMnBhLmNyZWF0ZWRxZGlnaXRhbFNvdXJjZVR5cGV4Rmh0dHA6Ly9jdi5pcHRjLm9yZy9uZXdzY29kZXMvZGlnaXRhbHNvdXJjZXR5cGUvdHJhaW5lZEFsZ29yaXRobWljTWVkaWFrZGVzY3JpcHRpb252Q3JlYXRlZCBieSBSZWNyYWZ0IEFJLgAAAMRqdW1iAAAAQGp1bWRjYm9yABEAEIAAAKoAOJtxE2MycGEuaGFzaC5kYXRhAAAAABhjMnNo9YZO34fSLkbfcruLDjY1aQAAAHxjYm9ypWpleGNsdXNpb25zgaJlc3RhcnQY22ZsZW5ndGgZEIxkbmFtZW5qdW1iZiBtYW5pZmVzdGNhbGdmc2hhMjU2ZGhhc2hYICr1wSYNelaxHXaCMTSqH475hfiRuz+MIAR7xO6iJx2PY3BhZEkAAAAAAAAAAAAAAAI0anVtYgAAACdqdW1kYzJjbAARABCAAACqADibcQNjMnBhLmNsYWltLnYyAAAAAgVjYm9ypmppbnN0YW5jZUlEeCx4bXA6aWlkOmQyMzE4ZDdjLWZkNWMtNGJlNS04ZjU4LTAzYmYxNzhlZTAwNHRjbGFpbV9nZW5lcmF0b3JfaW5mb6NkbmFtZWpyZWNyYWZ0LmFpZ3ZlcnNpb254KDgxY2U4MmUyYzVjM2NiZmJlOGM2ZmJlMTc5ZDVmOGQ5MWM0MDljZTF3b3JnLmNvbnRlbnRhdXRoLmMycGFfcnNmMC45MC43aXNpZ25hdHVyZXhNc2VsZiNqdW1iZj0vYzJwYS91cm46YzJwYToxNmY2ZDBiNS03ZTc1LTQ5MmItODE3My1jNjUyODcyZWVjMDMvYzJwYS5zaWduYXR1cmVyY3JlYXRlZF9hc3NlcnRpb25zgqJjdXJseCpzZWxmI2p1bWJmPWMycGEuYXNzZXJ0aW9ucy9jMnBhLmFjdGlvbnMudjJkaGFzaFggootVkyJEx7joFItvOOqB5q8JLWy2qXL3I6AbdcP9CE6iY3VybHgpc2VsZiNqdW1iZj1jMnBhLmFzc2VydGlvbnMvYzJwYS5oYXNoLmRhdGFkaGFzaFggew0+4YJuppT+t/uKdWR8F2aV3tsPRcMKcayfqaWy1GloZGM6dGl0bGV4GlJlY3JhZnQgQUkgR2VuZXJhdGVkIEltYWdlY2FsZ2ZzaGEyNTYAAAfcanVtYgAAAChqdW1kYzJjcwARABCAAACqADibcQNjMnBhLnNpZ25hdHVyZQAAAAesY2JvctKEWQOwogEmGCGCWQHnMIIB4zCCAYmgAwIBAgIJALfeWmNDUW56MAoGCCqGSM49BAMCMEAxHzAdBgNVBAMMFlJlY3JhZnQgU3RhZ2luZyBEZXYgQ0ExEDAOBgNVBAoMB1JlY3JhZnQxCzAJBgNVBAYTAlVTMB4XDTI2MDYxMjE5NDM1MFoXDTI3MDYxMjE5NDM1MFowNzELMAkGA1UEBhMCVVMxEzARBgNVBAoTClJlY3JhZnQgQUkxEzARBgNVBAMTCnJlY3JhZnQuYWkwWTATBgcqhkjOPQIBBggqhkjOPQMBBwNCAARKaTVbACsg/DeG3LeOxYdID/VA6EFG73E6Oknb+KIiCFJygRUz4ueN2z/t2qYb6CIUvS8RvgOiiClfoqsYtw81o3UwczAMBgNVHRMBAf8EAjAAMA4GA1UdDwEB/wQEAwIGwDATBgNVHSUEDDAKBggrBgEFBQcDBDAdBgNVHQ4EFgQULzHpBen96SL1y4IPHa8MkMshXf0wHwYDVR0jBBgwFoAUAgsqOBrKqpdK//m/kxZo7ZR4ebcwCgYIKoZIzj0EAwIDSAAwRQIgU8hKW0aXvvk8SQgVFNkax69Ym9ae8GsT2RZTQw+B51ACIQC0D4BkEoRD4N0r2ZRkNy0HZaW3WICy/QZGN95ilF4yzFkBvTCCAbkwggFfoAMCAQICCQCc+Wg7T6ATbzAKBggqhkjOPQQDAjBAMR8wHQYDVQQDDBZSZWNyYWZ0IFN0YWdpbmcgRGV2IENBMRAwDgYDVQQKDAdSZWNyYWZ0MQswCQYDVQQGEwJVUzAeFw0yNjA2MTIxOTQwMTZaFw0yODA2MTExOTQwMTZaMEAxHzAdBgNVBAMMFlJlY3JhZnQgU3RhZ2luZyBEZXYgQ0ExEDAOBgNVBAoMB1JlY3JhZnQxCzAJBgNVBAYTAlVTMFkwEwYHKoZIzj0CAQYIKoZIzj0DAQcDQgAEQ9IQBlcVbKaKPYrQSfOhL/00s7xUDC7RinIuLO/I1k99y9yh6oWF9kPxaP+tx1v1PeOL3yrVquJ730H0ZGiDyqNCMEAwDwYDVR0TAQH/BAUwAwEB/zAOBgNVHQ8BAf8EBAMCAYYwHQYDVR0OBBYEFAILKjgayqqXSv/5v5MWaO2UeHm3MAoGCCqGSM49BAMCA0gAMEUCIFQwNImLlYDeQhjgF+ZiqTbgcuzSqmOJw3Q2lQ/hu83FAiEA9O8cLm/xfoVLqB4jtdbuHzi3WL+p2RN+DRGkwpYswVuhY3BhZFkDpAAAAAAAAAAAAAAAAAAAAAAAAAAAAAAAAAAAAAAAAAAAAAAAAAAAAAAAAAAAAAAAAAAAAAAAAAAAAAAAAAAAAAAAAAAAAAAAAAAAAAAAAAAAAAAAAAAAAAAAAAAAAAAAAAAAAAAAAAAAAAAAAAAAAAAAAAAAAAAAAAAAAAAAAAAAAAAAAAAAAAAAAAAAAAAAAAAAAAAAAAAAAAAAAAAAAAAAAAAAAAAAAAAAAAAAAAAAAAAAAAAAAAAAAAAAAAAAAAAAAAAAAAAAAAAAAAAAAAAAAAAAAAAAAAAAAAAAAAAAAAAAAAAAAAAAAAAAAAAAAAAAAAAAAAAAAAAAAAAAAAAAAAAAAAAAAAAAAAAAAAAAAAAAAAAAAAAAAAAAAAAAAAAAAAAAAAAAAAAAAAAAAAAAAAAAAAAAAAAAAAAAAAAAAAAAAAAAAAAAAAAAAAAAAAAAAAAAAAAAAAAAAAAAAAAAAAAAAAAAAAAAAAAAAAAAAAAAAAAAAAAAAAAAAAAAAAAAAAAAAAAAAAAAAAAAAAAAAAAAAAAAAAAAAAAAAAAAAAAAAAAAAAAAAAAAAAAAAAAAAAAAAAAAAAAAAAAAAAAAAAAAAAAAAAAAAAAAAAAAAAAAAAAAAAAAAAAAAAAAAAAAAAAAAAAAAAAAAAAAAAAAAAAAAAAAAAAAAAAAAAAAAAAAAAAAAAAAAAAAAAAAAAAAAAAAAAAAAAAAAAAAAAAAAAAAAAAAAAAAAAAAAAAAAAAAAAAAAAAAAAAAAAAAAAAAAAAAAAAAAAAAAAAAAAAAAAAAAAAAAAAAAAAAAAAAAAAAAAAAAAAAAAAAAAAAAAAAAAAAAAAAAAAAAAAAAAAAAAAAAAAAAAAAAAAAAAAAAAAAAAAAAAAAAAAAAAAAAAAAAAAAAAAAAAAAAAAAAAAAAAAAAAAAAAAAAAAAAAAAAAAAAAAAAAAAAAAAAAAAAAAAAAAAAAAAAAAAAAAAAAAAAAAAAAAAAAAAAAAAAAAAAAAAAAAAAAAAAAAAAAAAAAAAAAAAAAAAAAAAAAAAAAAAAAAAAAAAAAAAAAAAAAAAAAAAAAAAAAAAAAAAAAAAAAAAAAAAAAAAAAAAAAAAAAAAAAAAAAAAAAAAAAAAAAAAAAAAAAAAAAAAAAAAAAAAAAAAAAAAAAAAAAAAAAAAAAAAAAAAAAAAAAAAAAAAAAAAAAAAAAAAAAAAAAAAAAAAAAAAAAAAAAAAAAAAAAAAAAAAAAAA9lhAMY+o4p125BkaeFaf5aCLitQ3Ej7vt4TKwBJ6Dii5ZyPGMBSMBUQcJXf2ssTOyN33JmQp26VILgU8WTuhyFi9vQ==</c2pa:manifest></metadata>
<path transform="translate(0,0)" fill="rgb(36,19,56)" d="M 0 0 L 2048 0 L 2048 2048 L 0 2048 L 0 0 z"/>
<path transform="translate(0,0)" fill="rgb(255,246,232)" d="M 950.008 515.733 C 915.987 481.645 923.927 443.279 939.822 403.949 C 950.312 377.993 948.51 363.155 969.74 340.084 C 999.847 307.368 1049.76 307.793 1081.63 337.352 C 1102.33 357.012 1102.79 370.941 1108.43 397.208 C 1109.82 403.65 1114.72 415 1117.06 421.777 C 1129.2 456.819 1124.44 490.975 1098.44 518.158 C 1096.45 528.406 1095.52 543.218 1094.54 553.733 C 1091.49 589.761 1090.89 616.002 1091.04 652.812 C 1091.43 746.026 1088.79 851.591 1143.36 932.195 C 1146.76 937.208 1169.94 947.494 1177.06 951.499 C 1185.95 956.534 1194.53 962.087 1202.76 968.128 C 1244.57 999.402 1287.56 1074.24 1314.11 1121.14 C 1323.27 1137.29 1332.27 1153.53 1341.09 1169.87 C 1345.9 1178.76 1357.31 1195.83 1354.58 1205.66 C 1343.73 1218.05 1303.61 1186.5 1293.32 1178.76 L 1291.68 1179.42 C 1343.62 1251.28 1325.45 1341.17 1261.44 1397.94 C 1253.02 1405.42 1244 1411.73 1235.54 1419.1 C 1228.26 1425.89 1223.66 1440.64 1212.82 1446.72 C 1211.24 1447.6 1208.77 1449.29 1206.92 1450.35 C 1189.7 1455.65 1180.79 1453.35 1167.11 1442.63 C 1165.12 1440.04 1163.81 1436.16 1162.56 1433.04 C 1050.13 1497.23 999.052 1494.84 886.556 1433.59 C 885.126 1436.48 883.536 1439.32 882.001 1442.16 C 871.913 1449.39 863.215 1454.07 850.161 1451.94 C 847.814 1451.54 845.486 1451.03 843.183 1450.42 C 840.359 1448.89 838.597 1447.56 836.185 1446.14 C 826.114 1440.18 821.424 1426.6 814.165 1419.96 C 804.346 1411.26 793.593 1404.11 784.068 1395 C 720.532 1334.25 707.46 1245.48 761.928 1174.08 C 749.324 1183.62 712.149 1214.58 697.471 1208.05 C 696.144 1206.77 695.017 1205.76 694.559 1203.88 C 690.759 1188.24 785.367 1038.29 800.132 1017.46 C 808.961 1004.92 818.974 993.267 830.033 982.65 C 840.605 972.394 852.233 963.289 864.724 955.484 C 876.433 948.159 903.045 938.663 909.171 928.692 C 959.684 846.485 958.17 740.723 957.62 647.997 C 957.35 602.425 956.599 557.917 950.008 515.733 z"/>
<path transform="translate(0,0)" fill="rgb(175,166,181)" d="M 1291.68 1179.42 C 1283.19 1173.81 1286.31 1171.7 1293.32 1178.76 L 1291.68 1179.42 z"/>
<path transform="translate(0,0)" fill="rgb(232,128,31)" d="M 1025.95 410.79 C 1031.87 408.798 1040.32 405.119 1046.46 407.634 C 1053.69 410.6 1062.02 469.275 1070.96 480.777 C 1073.57 484.123 1077.71 486.281 1080.85 489.114 C 1082.23 490.354 1083.26 491.646 1083.76 493.48 C 1084.51 496.244 1083.88 499.096 1082.47 501.524 C 1076.26 512.184 1059.12 518.621 1047.87 522.044 C 1022.45 527.852 986.143 523.884 967.225 502.103 C 960.875 494.792 972.533 486.726 978.778 484.013 C 984.93 469.782 989.576 456.042 993.565 441.051 C 995.936 432.14 997.113 413.026 1003.24 407.174 C 1012.25 406.613 1017.21 408.507 1025.95 410.79 z"/>
<path transform="translate(0,0)" fill="rgb(36,19,56)" d="M 1004.77 442.485 C 1006.42 441.516 1008.54 442.043 1009.54 443.671 C 1010.55 445.299 1010.07 447.431 1008.46 448.47 C 1007.39 449.163 1006.03 449.223 1004.9 448.626 C 1003.78 448.029 1003.06 446.87 1003.03 445.595 C 1003.01 444.32 1003.67 443.13 1004.77 442.485 z"/>
<path transform="translate(0,0)" fill="rgb(36,19,56)" d="M 1041.48 443.448 C 1042.41 442.593 1043.73 442.315 1044.93 442.722 C 1046.12 443.13 1047 444.158 1047.21 445.403 C 1047.43 446.647 1046.94 447.91 1045.95 448.693 C 1044.5 449.845 1042.39 449.639 1041.19 448.228 C 1039.98 446.816 1040.11 444.704 1041.48 443.448 z"/>
<path transform="translate(0,0)" fill="rgb(46,27,68)" d="M 963.753 382.37 C 967.707 381.467 971.839 382.774 974.555 385.785 C 977.271 388.796 978.145 393.042 976.84 396.881 C 975.535 400.72 972.255 403.553 968.266 404.286 C 962.28 405.385 956.512 401.498 955.284 395.537 C 954.057 389.575 957.819 383.725 963.753 382.37 z"/>
<path transform="translate(0,0)" fill="rgb(46,27,68)" d="M 1081.85 382.618 C 1085.56 381.115 1089.8 381.724 1092.95 384.213 C 1096.09 386.702 1097.65 390.688 1097.04 394.65 C 1096.43 398.613 1093.74 401.943 1089.99 403.369 C 1084.28 405.543 1077.88 402.713 1075.65 397.024 C 1073.42 391.335 1076.18 384.909 1081.85 382.618 z"/>
<path transform="translate(0,0)" fill="rgb(232,128,31)" d="M 882.001 1442.16 C 906.193 1470.65 886.418 1484.84 886.156 1510.9 C 885.749 1551.23 894.2 1604.25 911.551 1640.78 C 912.8 1643.24 930.478 1654.84 933.639 1656.98 C 950.633 1668.28 967.365 1679.97 983.82 1692.05 C 991.072 1697.28 1027.24 1721.23 1017.6 1731.94 C 1008.83 1731.74 998.062 1724.67 991.291 1724.3 C 962.243 1722.7 926.32 1730.28 902.112 1744.4 C 896.84 1760.62 887.643 1758.08 880.673 1745.01 C 854.331 1733.29 818.451 1724.61 789.642 1725.28 L 787.335 1726.53 C 783.518 1730.09 774.523 1734.56 769.341 1732.08 C 769.001 1727.03 773.371 1721.62 777.015 1718.28 C 801.628 1695.72 830.924 1678.44 856.16 1656.49 C 863.046 1650.51 871.661 1644.3 877.042 1637.07 C 876.565 1602.56 867.024 1557.67 860.41 1523.64 C 854.297 1492.18 838.447 1487 843.183 1450.42 C 845.486 1451.03 847.814 1451.54 850.161 1451.94 C 863.215 1454.07 871.913 1449.39 882.001 1442.16 z"/>
<path transform="translate(0,0)" fill="rgb(224,58,13)" d="M 787.335 1726.53 C 789.187 1721.67 807.278 1707.62 811.93 1704.64 C 827.842 1694.45 878.44 1646.83 894.244 1649.94 C 897.201 1654.86 896.941 1729.05 893.912 1732.9 C 890.125 1733.21 891.798 1733.63 888.66 1731.85 C 884.367 1724.61 886.819 1663.86 886.545 1650.61 C 860.155 1668.86 836.089 1689.62 810.443 1708.86 C 803.879 1713.78 795.335 1719.64 789.642 1725.28 L 787.335 1726.53 z"/>
<path transform="translate(0,0)" fill="rgb(224,58,13)" d="M 937.738 1677.53 C 942.938 1679.55 960.561 1692.97 963.373 1696.64 C 959.489 1698.25 956.797 1692.78 952.673 1689.99 C 947.439 1686.44 941.984 1682.1 937.738 1677.53 z"/>
<path transform="translate(0,0)" fill="rgb(232,128,31)" d="M 1167.11 1442.63 C 1180.79 1453.35 1189.7 1455.65 1206.92 1450.35 C 1208.4 1491.94 1197.62 1489.28 1188.95 1524.09 C 1181.04 1555.83 1171.9 1607.42 1171.94 1639.75 C 1204.91 1664.09 1238.01 1690.38 1270.42 1715.6 C 1274.06 1718.43 1282.45 1727.49 1280.31 1732.32 C 1273.83 1734.77 1266.54 1728.74 1262.06 1724.86 C 1234.15 1725.26 1194.17 1731.14 1169.62 1744.21 L 1168.97 1745.88 C 1162.86 1761.15 1151.88 1758.37 1146.84 1743.34 C 1118.38 1729.02 1084.75 1721.26 1052.72 1724.53 C 1046.48 1725.17 1040.87 1734.9 1030.59 1731.53 L 1030.3 1729.62 C 1037.68 1708.28 1055.69 1700.38 1072.62 1687.72 C 1094.71 1671.2 1117.05 1655.18 1139.93 1639.78 C 1152.78 1611.97 1165.15 1538.38 1161.72 1506.84 C 1160.24 1493.21 1151.86 1477.16 1155.64 1461.36 C 1157.53 1453.44 1160.11 1447.23 1167.11 1442.63 z"/>
<path transform="translate(0,0)" fill="rgb(224,58,13)" d="M 1156.08 1647.95 C 1156.83 1647.99 1157.57 1648.04 1158.31 1648.06 C 1159.52 1648.09 1161.58 1647.83 1162.54 1648.84 C 1163.05 1649.36 1163.03 1650.84 1163.07 1651.47 C 1163.57 1660.54 1164.36 1729.51 1161.87 1732.1 C 1161.66 1732.32 1161.45 1732.51 1161.25 1732.72 C 1160.94 1733.04 1160.65 1733.35 1160.35 1733.67 L 1159.11 1733.27 C 1157.9 1732.88 1155.61 1732.48 1154.57 1731.56 C 1153.33 1730.47 1152.94 1657.62 1153.69 1651.05 C 1153.88 1649.46 1154.88 1648.89 1156.08 1647.95 z"/>
<path transform="translate(0,0)" fill="rgb(224,58,13)" d="M 1141.62 1652.96 C 1142.97 1653.2 1142.51 1652.83 1143.13 1653.62 C 1140.78 1658.26 1075.28 1704.65 1065.73 1714.28 C 1062.18 1713.31 1065.51 1711.35 1067.02 1710.01 C 1090.56 1689.03 1116.3 1671.6 1141.62 1652.96 z"/>
<path transform="translate(0,0)" fill="rgb(224,58,13)" d="M 1240.38 1708.66 C 1246.39 1710.12 1255.92 1717.64 1259.9 1722.22 C 1254.97 1720.7 1244.35 1712.29 1240.38 1708.66 z"/>
</svg>