<svg version="1.1" xmlns="http://www.w3.org/2000/svg" style="display: block;" viewBox="0 0 2048 2048" width="1024" height="1024" preserveAspectRatio="none" xmlns:c2pa="http://c2pa.org/manifest">
<path transform="translate(0,0)" fill="rgb(184,223,42)" d="M 0 0 L 2048 0 L 2048 2048 L 0 2048 L 0 0 z"/>
<path transform="translate(0,0)" fill="rgb(227,222,238)" d="M 627.927 368.604 C 628.052 330.252 635.523 303.517 662.66 275.419 C 711.745 224.597 810.16 221.81 860.281 272.212 C 873.193 285.517 883.193 300.991 889.256 318.539 C 890.048 320.83 893.272 334.56 893.874 335.344 C 920.322 369.782 936.434 406.757 935.995 451.409 C 935.608 490.72 919.235 535.275 909.279 573.625 C 875.612 687.285 841.175 797.715 888.723 913.101 C 896.408 931.75 903.748 944.562 913.663 961.747 C 914.588 959.053 914.814 957.764 915.351 954.958 C 914.718 951.693 913.983 948.239 913.438 944.976 C 1022.62 931.376 1115.09 949.14 1218.68 984.535 C 1232.52 989.209 1246.23 994.284 1259.77 999.754 C 1272.38 1004.81 1299.19 1016.24 1312 1017.76 C 1378.29 1025.61 1454.53 1016.74 1519.81 1004.61 C 1551.54 998.113 1582.84 989.731 1613.91 980.667 C 1634.22 974.949 1654.65 965.364 1675.41 962.145 C 1690.9 959.744 1712.69 968.179 1713.64 985.129 C 1715.4 1016.89 1666.21 1053.02 1645.83 1071.79 C 1741.39 1054.5 1702.14 1112.89 1654.53 1147.02 C 1649.06 1150.93 1601.29 1184.2 1600.37 1186.55 C 1618.01 1188.58 1680.25 1171.54 1699.46 1165.7 C 1711.59 1162 1726.46 1155.38 1739.17 1154.95 C 1747.52 1154.67 1758.1 1156.72 1763.68 1163.52 C 1767.51 1168.2 1768.71 1174.62 1767.97 1180.51 C 1763.81 1213.91 1680.38 1281.75 1653.25 1301.75 C 1641.28 1310.56 1625.72 1318.7 1615.64 1329.45 C 1609.63 1335.86 1600.32 1365.06 1596.04 1374.75 C 1590.45 1387.39 1584.43 1399.84 1578 1412.08 C 1529.45 1505.3 1449 1577.95 1351.34 1616.78 C 1320.78 1628.83 1288.64 1638.05 1255.8 1640.59 C 1250.94 1640.96 1240.31 1642.03 1235.7 1641.28 L 1237.01 1638.9 L 1240.42 1629.42 C 1225.63 1631.52 1209.76 1634.6 1194.97 1631.38 C 1187.57 1629.77 1181.16 1625.93 1173.4 1624.96 C 1174.86 1630.34 1176.6 1635.78 1177.11 1641.29 L 1177.35 1641.99 C 1166.34 1645.73 1092.06 1635.7 1076.57 1632.78 C 1049.46 1627.67 1007.96 1619.11 981.734 1609.92 C 980.018 1614.9 978.066 1621.15 976.809 1626.28 C 950.222 1624.82 936.818 1620.31 911.857 1614.02 C 911.461 1604.82 911.505 1595.34 911.116 1585.92 C 891.574 1577.31 871.501 1570.06 852.11 1560.71 C 759 1515.83 667.798 1454.13 613.676 1363.79 C 608.532 1355.2 594.701 1322.42 590.805 1317.88 C 555.715 1276.99 524.753 1228.56 516.591 1174.35 C 512.74 1149.51 518.069 1107.42 535.38 1085.17 C 548.454 1062.51 565.548 1048.28 586.448 1033.77 C 589.152 1029.24 594.934 1000.29 596.714 993.152 C 602.227 970.992 608.858 949.125 616.58 927.635 C 628.75 893.323 642.996 859.518 656.092 825.533 C 663.882 806.091 671.823 787.215 678.36 767.293 C 702.126 694.86 689.684 637.94 667.688 568.576 C 661.603 569.63 655.466 570.354 649.303 570.746 C 629.539 572.087 578.202 571.498 577.154 541.372 C 576.541 523.783 596.192 508.165 607.655 496.179 C 595.08 452.052 602.83 406.655 627.927 368.604 z"/>
<path transform="translate(0,0)" fill="rgb(243,63,13)" d="M 657.939 391.156 C 675.228 389.616 737.044 385.375 748.714 393.87 C 756.01 404.936 754.2 419.006 756.508 431.65 C 758.814 444.285 764.072 460.919 770.434 471.933 C 778.977 486.724 794.252 496.094 805.627 507.929 C 807.529 509.908 808.248 512.073 807.828 514.722 C 801.353 520.267 755.851 533.152 742.352 538.625 L 740.53 539.529 C 730.928 544.361 723.969 548.119 713.737 551.668 C 701.284 558.538 681.771 566.191 667.688 568.576 C 661.603 569.63 655.466 570.354 649.303 570.746 C 629.539 572.087 578.202 571.498 577.154 541.372 C 576.541 523.783 596.192 508.165 607.655 496.179 C 627.633 475.711 643.276 453.114 646.017 423.966 C 647.607 407.056 642.86 401.337 657.939 391.156 z"/>
<path transform="translate(0,0)" fill="rgb(46,27,68)" d="M 771.184 501.95 L 772.455 504.551 L 771.949 505.228 C 766.525 512.597 762.472 518.815 755.892 525.635 C 751.416 530.272 746.551 534.085 742.352 538.625 L 740.53 539.529 C 730.928 544.361 723.969 548.119 713.737 551.668 C 718.561 546.921 725.976 541.811 731.613 537.599 C 747.844 525.472 758.256 517.425 771.184 501.95 z"/>
<path transform="translate(0,0)" fill="rgb(105,52,78)" d="M 778.747 490.538 C 776.74 496.04 775.63 499.525 772.455 504.551 L 771.184 501.95 C 772.895 498.873 776.656 493.655 778.747 490.538 z"/>
<path transform="translate(0,0)" fill="rgb(46,27,68)" d="M 712.603 455.754 C 717.186 453.624 722.629 455.598 724.781 460.171 C 726.934 464.744 724.986 470.196 720.424 472.371 C 715.83 474.56 710.332 472.597 708.165 467.992 C 705.997 463.388 707.988 457.899 712.603 455.754 z"/>
<path transform="translate(0,0)" fill="rgb(46,27,68)" d="M 651.007 452.74 C 664.072 455.099 664.807 466.381 653.918 473.366 C 640.272 470.231 642.051 460.579 651.007 452.74 z"/>
<path transform="translate(0,0)" fill="rgb(211,54,18)" d="M 1156.29 1567.25 L 1160.8 1571.49 C 1187.94 1595.84 1230.72 1601.28 1262.72 1583.62 C 1262.01 1586.96 1258.19 1592.7 1256.17 1595.88 C 1250.18 1605.27 1245.88 1613.65 1242.14 1624.15 L 1240.42 1629.42 C 1225.63 1631.52 1209.76 1634.6 1194.97 1631.38 C 1187.57 1629.77 1181.16 1625.93 1173.4 1624.96 C 1168.44 1604.43 1164.95 1594.43 1157.29 1574.75 C 1155.39 1570.2 1155.06 1570.91 1156.29 1567.25 z"/>
<path transform="translate(0,0)" fill="rgb(211,54,18)" d="M 911.116 1585.92 C 934.837 1593.51 956.561 1602.82 981.734 1609.92 C 980.018 1614.9 978.066 1621.15 976.809 1626.28 C 950.222 1624.82 936.818 1620.31 911.857 1614.02 C 911.461 1604.82 911.505 1595.34 911.116 1585.92 z"/>
<path transform="translate(0,0)" fill="rgb(191,208,70)" d="M 915.351 954.958 C 915.667 956.739 918.552 971.35 913.663 961.747 C 914.588 959.053 914.814 957.764 915.351 954.958 z"/>
<path transform="translate(0,0)" fill="rgb(46,27,68)" d="M 814.238 352.911 C 833.853 353.246 837.891 379.77 818.74 389.185 C 799.554 387.897 794.315 362.147 814.238 352.911 z"/>
<path transform="translate(0,0)" fill="rgb(46,27,68)" d="M 641.258 347.906 C 659.832 347.336 660.856 373.547 650.21 383.462 C 646.068 383.183 642.177 383.758 639.37 380.408 C 630.33 369.617 630.866 356.894 641.258 347.906 z"/>
<path transform="translate(0,0)" fill="rgb(243,63,13)" d="M 1173.4 1624.96 C 1181.16 1625.93 1187.57 1629.77 1194.97 1631.38 C 1209.76 1634.6 1225.63 1631.52 1240.42 1629.42 L 1237.01 1638.9 L 1235.7 1641.28 C 1235.54 1645.31 1231.38 1660.87 1230.28 1666.08 C 1225.93 1686.66 1224.83 1701.26 1224.89 1721.8 C 1224.96 1743.5 1234.66 1752.18 1239.09 1768.48 C 1248.81 1804.25 1237.06 1840.84 1209.39 1865.38 C 1185.25 1886.79 1160.38 1895.97 1132.18 1910.7 C 1107.8 1923.44 1091.88 1931.82 1069.43 1946.78 C 1039.52 1911.12 994.953 1893.31 949.546 1886.93 C 924.386 1883.39 901.076 1887.23 876.799 1894.09 C 902.97 1825.46 975.976 1808.87 1040.49 1794.71 C 1093.65 1783.05 1152.67 1784.1 1175.42 1724.38 C 1183.4 1704.87 1184.57 1660.12 1177.35 1641.99 L 1177.11 1641.29 C 1176.6 1635.78 1174.86 1630.34 1173.4 1624.96 z"/>
<path transform="translate(0,0)" fill="rgb(243,63,13)" d="M 911.857 1614.02 C 936.818 1620.31 950.222 1624.82 976.809 1626.28 C 969.863 1650.5 967.933 1663.5 977.823 1687.21 C 984.534 1704.85 986.026 1726.33 979.328 1744.2 C 966.101 1779.49 922.056 1792.37 890.141 1805.27 C 849.225 1821.8 806.219 1834.01 765.826 1851.89 C 747.555 1798.54 675.544 1786.84 626.578 1786.99 C 672.043 1737.27 743.147 1725.68 806.674 1716.85 C 832.71 1713.23 863.417 1718.76 883.867 1698.88 C 908.616 1674.84 910.795 1646.59 911.857 1614.02 z"/>
</svg>